<svg id="Layer_1" data-name="Layer 1" xmlns="http://www.w3.org/2000/svg" viewBox="0 0 312 312"><defs><style>.cls-1{fill:#fff;}.cls-2{fill:none;stroke:#f70909;stroke-width:3px;}.cls-3{isolation:isolate;}.cls-4{fill:#f70909;}</style></defs><title>engage</title><g id="Group_614" data-name="Group 614"><g id="Rectangle_66" data-name="Rectangle 66"><rect class="cls-1" width="312" height="312"/><rect class="cls-2" x="1.5" y="1.5" width="309" height="309"/></g><g id="Engage" class="cls-3"><g class="cls-3"><path class="cls-4" d="M40.95,196.9649l-8.9678-50.7657L68.69,139.7149l1.0581,5.99L39.7588,151.002,42.5054,166.55,70.59,161.5889l1.0523,5.957-28.0845,4.961L46.61,189.7861l31.1665-5.5048,1.0586,5.99Z"/><path class="cls-4" d="M87.3184,188.7735l-6.4961-36.7764,5.61-.9912.9234,5.23a13.427,13.427,0,0,1,10.6342-8.128,15.5833,15.5833,0,0,1,6.3238.1153,9.7772,9.7772,0,0,1,4.7261,2.3965,12.2257,12.2257,0,0,1,2.7524,4.2636,36.2564,36.2564,0,0,1,1.417,5.9991l3.9941,22.6123-6.2324,1.1015-3.9521-22.3711a17.0372,17.0372,0,0,0-1.7334-5.5674,6.09,6.09,0,0,0-3.1119-2.5566,8.3281,8.3281,0,0,0-4.5444-.3574,10.254,10.254,0,0,0-6.4277,3.7412q-2.4449,3.04-1.1973,10.1035l3.5479,20.084Z"/><path class="cls-4" d="M126.1567,185.0557l6.2188-.1709a5.8619,5.8619,0,0,0,2.834,3.7129,10.5354,10.5354,0,0,0,6.643.6123,11.3138,11.3138,0,0,0,6.378-2.9121,8.6623,8.6623,0,0,0,2.33-5.41,40.5129,40.5129,0,0,0-.9634-8.0791,13.0149,13.0149,0,0,1-9.3311,6.6113q-7.5834,1.34-12.7055-3.3964a21.4024,21.4024,0,0,1-6.4737-12.3907,24.802,24.802,0,0,1,.189-10.05,15.459,15.459,0,0,1,4.3091-7.85,15.1473,15.1473,0,0,1,8.0727-3.9267,13.3861,13.3861,0,0,1,11.6651,3.3681l-.7827-4.4336,5.748-1.0156,5.6157,31.79q1.517,8.5869.4014,12.4805a12.9911,12.9911,0,0,1-4.5405,6.6406,19.4922,19.4922,0,0,1-8.9659,3.7266q-6.5786,1.1631-11.1533-1.083Q127.07,191.0376,126.1567,185.0557Zm1.2569-23.0049q1.2787,7.2393,4.74,10.0547a9.6286,9.6286,0,0,0,14.4092-2.5283q2.3247-3.82,1.0762-10.8858-1.1924-6.7528-4.794-9.6523a9.4055,9.4055,0,0,0-7.8252-2.15,9.1313,9.1313,0,0,0-6.4682,4.623Q126.2391,155.4009,127.4136,162.0508Z"/><path class="cls-4" d="M189.4,166.0625a23.5879,23.5879,0,0,1-5.9326,5.334,19.6026,19.6026,0,0,1-6.66,2.4258q-6.0608,1.0693-9.8384-1.3154a9.9272,9.9272,0,0,1-4.5918-6.9913,10.2184,10.2184,0,0,1,.3584-5.1523,10.3236,10.3236,0,0,1,2.5874-4.1523,15.3855,15.3855,0,0,1,4.1231-2.836,45.415,45.415,0,0,1,5.3755-1.914,57.8343,57.8343,0,0,0,10.7368-4.1094q-.1919-1.2861-.2529-1.6348-.6732-3.8087-2.7144-5.0547-2.762-1.69-7.4722-.8574-4.3981.7764-6.2207,2.6865-1.8237,1.9116-2.1362,6.002l-6.2407.2451a15.3294,15.3294,0,0,1,1.6186-6.8027,12.1738,12.1738,0,0,1,4.8516-4.6778,24.9057,24.9057,0,0,1,8.1167-2.7734,22.42,22.42,0,0,1,7.8486-.2442,10.2411,10.2411,0,0,1,4.8208,2.0235,9.9591,9.9591,0,0,1,2.6885,3.8994,35.5977,35.5977,0,0,1,1.3271,5.6943l1.4678,8.3106a89.5934,89.5934,0,0,0,2.3408,10.9238,14.06,14.06,0,0,0,2.3555,4.1367l-6.51,1.15A13.3968,13.3968,0,0,1,189.4,166.0625Zm-2.979-13.8281a46.417,46.417,0,0,1-9.7651,4.1523,23.96,23.96,0,0,0-5.2164,2.2071,5.5161,5.5161,0,0,0-2.101,2.46,5.5963,5.5963,0,0,0,2.2793,6.9365,8.2428,8.2428,0,0,0,5.8169.6856,13.0405,13.0405,0,0,0,6.1279-2.707,9.8517,9.8517,0,0,0,3.3589-5.0391,15.2849,15.2849,0,0,0-.0967-6.41Z"/><path class="cls-4" d="M205.041,171.1211l6.2193-.1719a5.8639,5.8639,0,0,0,2.8339,3.7139,10.5482,10.5482,0,0,0,6.6431.6123,11.31,11.31,0,0,0,6.3774-2.9121,8.6561,8.6561,0,0,0,2.33-5.41,40.4889,40.4889,0,0,0-.9629-8.08,13.0173,13.0173,0,0,1-9.331,6.6123q-7.5836,1.34-12.7056-3.3975a21.4,21.4,0,0,1-6.4736-12.3906,24.8065,24.8065,0,0,1,.1885-10.0488,15.4666,15.4666,0,0,1,4.3091-7.85,15.1525,15.1525,0,0,1,8.0732-3.9277,13.39,13.39,0,0,1,11.665,3.3691l-.7832-4.4335,5.7486-1.0157,5.6157,31.79q1.5168,8.5869.4014,12.48a12.99,12.99,0,0,1-4.5411,6.64,19.48,19.48,0,0,1-8.9653,3.7265q-6.5793,1.1631-11.1538-1.082T205.041,171.1211Zm1.2573-23.0059q1.2789,7.2393,4.74,10.0547a9.6274,9.6274,0,0,0,14.4092-2.5273q2.3239-3.82,1.0761-10.8857-1.1924-6.753-4.7939-9.6524a9.4041,9.4041,0,0,0-7.8257-2.1514,9.1378,9.1378,0,0,0-6.4683,4.6231Q205.124,141.4668,206.2983,148.1152Z"/><path class="cls-4" d="M268.1714,144.6133l6.5815-.3418a15.958,15.958,0,0,1-4.0966,9.7578,17.2307,17.2307,0,0,1-9.9771,4.9766q-8.0691,1.4266-13.6733-2.708t-7.189-13.1035q-1.6392-9.28,2.2349-15.2491a16.4239,16.4239,0,0,1,11.4912-7.3164,15.9663,15.9663,0,0,1,12.9384,2.8936q5.5614,4.1967,7.17,13.3017.0981.5538.2588,1.669l-27.4258,4.8447q1.4164,5.9985,5.0674,8.6748a10.36,10.36,0,0,0,8.2568,1.8623,9.6864,9.6864,0,0,0,5.5342-2.834A12.1486,12.1486,0,0,0,268.1714,144.6133Zm-22.2461-6.4619,20.5351-3.6279q-1.2355-4.5645-3.5844-6.545a9.7046,9.7046,0,0,0-8.3584-2.2363,10.057,10.057,0,0,0-6.7124,4.1484A11.5553,11.5553,0,0,0,245.9253,138.1514Z"/></g></g></g></svg>