<svg id="Layer_1" data-name="Layer 1" 
    xmlns="http://www.w3.org/2000/svg" viewBox="0 0 298.4542 298.4542">
    <defs>
        <style>.cls-1{fill:#fff;stroke:#047931;stroke-miterlimit:4.001;stroke-width:3.0008px;}.cls-2{isolation:isolate;}.cls-3{fill:#047931;}</style>
    </defs>
    <title>listen</title>
    <circle class="cls-1" cx="149.2271" cy="149.2271" r="147.702"/>
    <g class="cls-2">
        <path class="cls-3" d="M42.8979,150.9619l.3759-2.1279,4.2559.7519c4.2559.752,6.5039-.3867,6.9932-3.1533L62.04,103.8789c.5019-2.8369-1.2334-4.606-5.4893-5.3574l-4.2558-.752.3759-2.1279,26.9512,4.7607-.376,2.128-5.6738-1.002c-4.2549-.7519-6.4912.3159-6.9932,3.1529l-7.5166,42.5542c-.5019,2.8369,1.2344,4.6054,5.4893,5.3574l10.6377,1.8789c10.64,1.88,14.8379-6.1543,16.1894-8.8418l1.294.9609L86.8705,158.73Z"/>
        <path class="cls-3" d="M92.5414,159.7314l.376-2.1279,2.4111.4258c2.5537.4512,4.8819-.3076,5.4336-3.4277L103.894,136.87c.7138-4.0425.747-6.3037-1.4512-6.6924a11.5281,11.5281,0,0,0-4.0557.6006l-.333-2.2534,11.9414-3.01.2334.334-5.2119,29.5044c-.5517,3.12,1.377,4.6309,3.9287,5.082l2.4121.4258-.3759,2.128Zm17.7041-51.36a4.3214,4.3214,0,1,1-5.0088,3.5039A4.151,4.151,0,0,1,110.2455,108.3716Z"/>
        <path class="cls-3" d="M132.5961,131.7017c-4.2549-.7515-6.8828,1.7094-7.3838,4.5463-.8525,4.8228,3.9112,6.835,9.0254,9.3477,6.1992,2.9961,13.1445,5.9053,11.7041,14.0615-1.0029,5.6739-5.9375,9.1905-13.1015,7.9248-5.9561-1.0527-7.3926-4.5244-9.0948-4.8252-.9922-.1748-1.8769.6934-3.2129,1.627l-1.167.8174-.2841-.05L116.9076,150.14l1.542-.458c.3467.9385,4.2539,13.1836,14.1826,14.9385,5.7452,1.0147,8.2784-1.3174,8.8047-4.2959.9278-5.248-3.7627-7.6855-8.9941-10.3652-6.1729-3.1387-12.9912-5.9512-11.7383-13.0444.877-4.9644,5.1758-8.5933,11.9131-7.4029,4.8936.8643,5.9121,3.3843,7.8975,3.7354a3.2042,3.2042,0,0,0,2.6357-.8511l1.24-.8047.2842.05,2.3555,13.5811-1.5459.458S141.1069,133.2051,132.5961,131.7017Z"/>
        <path class="cls-3" d="M154.1235,134.0415l2.1279.376c5.1767.9145,9.5957-.4986,11.6123-11.917l.4893-2.7661,2.1279.376-2.8819,16.312,14.1846,2.5053-.376,2.128L167.2231,138.55l-3.7588,21.2768c-1.002,5.6739.2148,9.5459,5.18,10.4229,7.5175,1.3281,10.0644-7.291,10.7988-9.7939l1.2939.96c-.66,2.0772-3.7822,13.959-13.8535,12.18-6.0283-1.0654-9.3037-5.3-7.9258-13.1016l4.01-22.6958-9.22-1.6289Z"/>
        <path class="cls-3" d="M212.0746,160.37l-23.7588-4.1972c-.1962.6962-.3212,1.4052-.4472,2.1142-1.49,8.44,1.0576,15.5459,8.7168,16.8994,9.5049,1.6787,13.6445-7.6836,13.9365-8.5088l1.2939.96c-.2675.6836-5.6435,12.8984-17.417,10.8184-9.6455-1.7041-14.083-10.5323-12.3291-20.461,2.1553-12.1992,10.9-17.8222,18.9864-16.3935,10.07,1.7793,12.8066,10.3066,11.3535,18.5341Zm-23.17-6.2881,18.1563,3.208c.5761-3.2627,2.13-12.0576-5.53-13.4111C196.141,142.9268,191.3676,146.7646,188.9047,154.082Z"/>
        <path class="cls-3" d="M246.4418,162.0518c1.0147-5.7442-1.1738-8.252-5.4306-9.0039-6.0987-1.0772-11.9864,4.1-13.0518,10.1279l-2.38,13.4756c-.5517,3.12,1.377,4.6308,3.9287,5.082l2.4121.4258-.3759,2.1279-18.44-3.2578.376-2.1279,2.4111.4257c2.5547.4522,4.8819-.3076,5.4336-3.4277l3.1319-17.7314c.7021-3.9717.7685-6.0078-1.501-6.4082a10.8841,10.8841,0,0,0-4.0059.3164l-.333-2.253,14.3535-2.5839.2325.3339-4.8731,9.378.2822.05c4.8819-5.2813,10.4571-8.6846,15.9883-7.7071,5.249.9268,7.627,4.8575,6.75,9.8223l-3.7832,21.419c-.5517,3.12,1.375,4.6308,3.9287,5.082l2.41.4258-.376,2.1279-18.4385-3.2568.376-2.128,2.41.4258c2.5537.4512,4.8808-.3086,5.4326-3.4287Z"/>
    </g>
</svg>