<svg id="Layer_1" data-name="Layer 1" 
    xmlns="http://www.w3.org/2000/svg" viewBox="0 0 346.26 349.428">
    <defs>
        <style>.cls-1{fill:#fff;stroke:#ff9d00;stroke-miterlimit:10;stroke-width:2.9991px;}.cls-2{isolation:isolate;}.cls-3{fill:#ff9d00;}</style>
    </defs>
    <title>play</title>
    <path class="cls-1" d="M258.0152,346.5445,2.91,99.9545,344.1738,2.1582Z"/>
    <g id="Group_593" data-name="Group 593">
        <g id="Play_" data-name="Play " class="cls-2">
            <g class="cls-2">
                <path class="cls-3" d="M120.6157,156.6064l.3379-2.1328,4.2676.6758c4.2671.6758,6.4844-.4316,6.9351-3.2764l6.7583-42.6718c.45-2.8448-1.316-4.583-5.5831-5.2588l-4.2675-.6758.3379-2.1338L154.01,105.03c13.5127,2.14,21.6557,7.8047,19.9658,18.4726s-11.8018,13.294-23.252,11.4815L139.771,133.249l-3.064,19.3448c-.45,2.8447,1.3159,4.583,5.583,5.2587l5.69.9014-.3379,2.1328ZM152.96,107.0508l-2.56-.4053c-4.2671-.6758-6.4844.4316-6.9346,3.2764l-3.3569,21.1933,8.8188,1.3965c9.2456,1.4649,17.4971.002,19.0743-9.9551C169.4775,113.24,162.917,108.6279,152.96,107.0508Z"/>
                <path class="cls-3" d="M182.7881,159.8926c-.4951,3.1289,1.458,4.6054,4.0181,5.0107l2.4184.3828-.3379,2.1328L170.3955,164.49l.3379-2.1328,2.418.3828c2.5605.4063,4.874-.3945,5.37-3.5234l5.97-37.6934c.6421-4.0537.6358-6.3154-1.5693-6.665a11.5429,11.5429,0,0,0-4.043.6729l-.373-2.2471,11.8828-3.2207.2392.33Z"/>
                <path class="cls-3" d="M221.19,165.9746l.4956-3.1289-.2846-.0449c-3.3633,4.2051-8.2359,9.1924-16.628,7.8633-7.1118-1.127-11.2275-5.0586-10.27-11.1036,1.4082-8.89,8.7569-9.2568,17.8867-8.9042,6.5953.2421,11.2227.0273,11.8536-3.9551.89-5.6182-2.5147-9.4385-8.9161-10.4522-6.7558-1.0693-7.6372,1.27-8.4091,3.8438-.7617,2.5029-1.4024,5.1728-4.8164,4.6318a2.7763,2.7763,0,0,1-2.5367-3.3174c.6309-3.9824,7.8658-8.2324,16.4-6.8808,7.1123,1.1259,13.8858,4.3877,12.5455,12.8506L225.57,165.94c-.3379,2.1337.0357,4.38,2.169,4.7177,3.1294.4961,4.73-3.625,5.0556-4.3037l1.31.9375c-2.1694,4.0313-4.7944,7.2588-8.3506,6.6953S220.5146,170.2422,221.19,165.9746Zm2.31-14.58a51.8421,51.8421,0,0,1-10.7632,1.2119c-6.5918.1944-11.4741,1.0987-12.4316,7.1436-.8448,5.334,2.145,7.6309,6.6968,8.3516,10.3125,1.6338,15.3154-9.2393,15.8784-12.795Z"/>
                <path class="cls-3" d="M238.5527,141.0205l-1.707-.2695.3379-2.1338L254.252,141.32l-.3379,2.1338-2.1338-.3379c-2.1328-.3379-4.0386-.2754-4.3653,1.7871a4.4415,4.4415,0,0,0,.1338,1.917L252.52,170.208l11.2739-20.0869a6.7417,6.7417,0,0,0,.7647-2.0654c.394-2.4893-2.5361-3.3174-4.6709-3.6553l-1.7061-.27.3379-2.1338,16.3575,2.5908-.3379,2.1338-1.7071-.27c-2.56-.4053-4.78.2627-6.9043,4.0088L247.7192,182.57c-4.5629,8.0986-9.5122,9.4287-14.4907,8.6406-4.125-.6533-6.1421-2.65-5.7256-5.2812a2.7375,2.7375,0,0,1,3.295-2.3955c3.6992.5859,2.9936,4.12,6.5493,4.6826,2.4179.3828,5.2519-.4805,8.3808-5.9619l3.6411-6.4229-6.686-30.5107C242.0332,142.52,240.9707,141.4043,238.5527,141.0205Z"/>
            </g>
        </g>
    </g>
</svg>