<svg id="Layer_1" data-name="Layer 1" xmlns="http://www.w3.org/2000/svg" viewBox="0 0 346.26 349.428"><defs><style>.cls-1{fill:#fff;}.cls-2{fill:#ff9d00;}.cls-3{isolation:isolate;}</style></defs><title>play</title><g id="Group_611" data-name="Group 611"><g id="Polygon_1" data-name="Polygon 1"><path class="cls-1" d="M258.0152,346.5445,2.91,99.9545,344.1738,2.1582Z"/><path class="cls-2" d="M342.0877,4.3164,5.82,100.681,257.19,343.661,342.0877,4.3164M346.26,0,258.84,349.428,0,99.228Z"/></g><g id="Group_593" data-name="Group 593"><g id="Play_" data-name="Play " class="cls-3"><g class="cls-3"><path class="cls-2" d="M124.6271,157.2685l8.0625-50.9043,19.2021,3.042a46.9393,46.9393,0,0,1,7.6665,1.7119,15.5283,15.5283,0,0,1,5.9082,3.374,12.64,12.64,0,0,1,3.3013,5.5605A16.7722,16.7722,0,0,1,163.34,137.577q-4.8448,3.8424-15.643,2.1309l-13.0557-2.0674-3.2783,20.6953Zm10.9658-25.6348,13.16,2.084q6.5282,1.0341,9.6563-.9619a8.769,8.769,0,0,0,3.8262-6.4063,9.3149,9.3149,0,0,0-.7486-5.7246,7.6365,7.6365,0,0,0-3.7778-3.6768,29.0436,29.0436,0,0,0-6.2134-1.4472l-13.021-2.0625Z"/><path class="cls-2" d="M171.1222,164.6327l8.0625-50.9043,6.25.99-8.0625,50.9042Z"/><path class="cls-2" d="M211.8439,166.42a23.5923,23.5923,0,0,1-7.3448,3.1084,19.5611,19.5611,0,0,1-7.0849.124q-6.0762-.9624-8.87-4.4492a9.9218,9.9218,0,0,1-2.0625-8.1045,10.2133,10.2133,0,0,1,2.0166-4.7519,10.3337,10.3337,0,0,1,3.7983-3.083,15.3983,15.3983,0,0,1,4.8208-1.336,45.4874,45.4874,0,0,1,5.7051-.0586,57.8279,57.8279,0,0,0,11.4868-.3867q.2373-1.2788.293-1.626.605-3.82-.9185-5.6621-2.06-2.4975-6.7827-3.2461-4.41-.6987-6.7554.5137t-3.9736,4.9766l-5.98-1.8008a15.3128,15.3128,0,0,1,3.7471-5.9023,12.1623,12.1623,0,0,1,6.1093-2.8418,24.9248,24.9248,0,0,1,8.5743.0244,22.4284,22.4284,0,0,1,7.498,2.3252,10.24,10.24,0,0,1,3.8975,3.4834,9.956,9.956,0,0,1,1.2715,4.5605,35.7308,35.7308,0,0,1-.6006,5.8145l-1.32,8.333a89.5311,89.5311,0,0,0-1.3471,11.0888,14.0633,14.0633,0,0,0,.8789,4.6768l-6.5283-1.0342A13.4082,13.4082,0,0,1,211.8439,166.42Zm1.69-14.042a46.3814,46.3814,0,0,1-10.5825.7451,23.958,23.958,0,0,0-5.6494.3858,5.501,5.501,0,0,0-2.7871,1.6416,5.592,5.592,0,0,0-.106,7.2978,8.2431,8.2431,0,0,0,5.2739,2.544,13.051,13.051,0,0,0,6.6743-.5625,9.8524,9.8524,0,0,0,4.8169-3.669,15.2859,15.2859,0,0,0,1.9971-6.0908Z"/><path class="cls-2" d="M224.0826,187.579l.2349-5.9775a14.12,14.12,0,0,0,3.4888,1.122,6.9483,6.9483,0,0,0,3.4433-.167,5.74,5.74,0,0,0,2.3565-1.62,31.112,31.112,0,0,0,2.6469-4.3506q.2564-.4937.7979-1.4394l-8.1421-39.1621,6.7363,1.0664,4.2915,22.57q.85,4.3008,1.3213,8.9658a84.6669,84.6669,0,0,1,3.9-7.9951l11.2867-20.2461,6.25.99-19.9678,35.2784a74.43,74.43,0,0,1-4.8325,7.8134,12.5008,12.5008,0,0,1-4.5376,3.9268,9.1387,9.1387,0,0,1-5.3667.6269A12.7127,12.7127,0,0,1,224.0826,187.579Z"/></g></g></g></g></svg>