<svg id="Layer_1" data-name="Layer 1" xmlns="http://www.w3.org/2000/svg" viewBox="0 0 442.3224 169.7386"><defs><style>.cls-1{fill:#fff;}.cls-2{fill:#ff9aec;}.cls-3{isolation:isolate;}</style></defs><title>read</title><g id="Group_612" data-name="Group 612"><g id="Path_50" data-name="Path 50"><path class="cls-1" d="M234.2136,158.7524c-14.9436,2.64-29.9681,4.7639-44.6563,6.3133-14.312,1.51-28.4775,2.4925-42.1031,2.9209-13.3727.4206-26.36.3117-38.6006-.3234a337.9167,337.9167,0,0,1-34.144-3.4158,213.92,213.92,0,0,1-28.7232-6.346,115.7047,115.7047,0,0,1-22.3233-9.0839A54.4954,54.4954,0,0,1,8.7094,137.273a26.9,26.9,0,0,1-5.0979-28.8586A54.497,54.497,0,0,1,13.705,92.4452,115.7147,115.7147,0,0,1,31.565,76.263,213.9118,213.9118,0,0,1,56.3756,60.46,337.8941,337.8941,0,0,1,87.2829,45.5532c11.2823-4.79,23.4461-9.3422,36.1536-13.5287,12.9477-4.2658,26.5926-8.1957,40.5557-11.6808,14.33-3.5766,29.173-6.7286,44.1166-9.3684,18.0278-3.1846,36.0817-5.605,53.66-7.1939,17.0831-1.5442,33.7969-2.3113,49.6771-2.28a399.8952,399.8952,0,0,1,44.0492,2.3794,247.3046,247.3046,0,0,1,36.7628,6.7717c14.11,3.8438,25.4174,8.82,33.6087,14.7917,8.314,6.0607,13.2161,13.02,14.57,20.6848a28.3583,28.3583,0,0,1-1.7258,15.1844,54.497,54.497,0,0,1-10.0935,15.9692,115.7147,115.7147,0,0,1-17.86,16.1822,213.905,213.905,0,0,1-24.8107,15.8027A337.9052,337.9052,0,0,1,355.04,124.1745c-11.2823,4.7905-23.4462,9.3422-36.1537,13.5287-12.9477,4.2658-26.5925,8.1957-40.5556,11.6808C264,152.9606,249.1572,156.1126,234.2136,158.7524Z"/><path class="cls-2" d="M208.37,12.4528c-14.91,2.6337-29.718,5.7784-44.0143,9.3466-13.9276,3.4762-27.5367,7.3959-40.45,11.65-12.6681,4.1735-24.7926,8.71-36.0368,13.4847A336.435,336.435,0,0,0,57.1,61.7742a212.4183,212.4183,0,0,0-24.6357,15.69A114.2158,114.2158,0,0,0,14.8361,93.431,53.02,53.02,0,0,0,5.0129,108.95,25.4063,25.4063,0,0,0,9.8424,136.29,53.02,53.02,0,0,0,24.388,147.5039,114.2164,114.2164,0,0,0,46.42,156.465a212.4275,212.4275,0,0,0,28.52,6.3,336.4158,336.4158,0,0,0,33.9913,3.4c12.1993.6329,25.1445.7413,38.4758.3221,13.5888-.4274,27.7172-1.4075,41.9928-2.9134,14.6536-1.5457,29.6433-3.6649,44.5527-6.2987s29.718-5.7784,44.0144-9.3466c13.9274-3.4762,27.5366-7.3959,40.45-11.65,12.668-4.1735,24.7925-8.71,36.0367-13.4847a336.4223,336.4223,0,0,0,30.7692-14.84,212.4183,212.4183,0,0,0,24.6357-15.69,114.2215,114.2215,0,0,0,17.6283-15.967A53.02,53.02,0,0,0,437.31,60.7776a26.8845,26.8845,0,0,0,1.65-14.3877c-1.2842-7.27-5.9865-13.909-13.9764-19.7334C416.94,20.7932,405.7966,15.8957,391.8636,12.1a245.821,245.821,0,0,0-36.5377-6.7284,398.3868,398.3868,0,0,0-43.8828-2.37c-15.8343-.0312-32.5017.7339-49.5391,2.274-17.5364,1.5851-35.5479,4-53.5341,7.1771m-.522-2.955C281.4862-3.51,348.8776-2.7213,392.6523,9.2047c28.1577,7.6708,46.35,20.18,49.262,36.6632,7.3528,41.6235-85.5212,92.8251-207.44,114.362S7.7609,165.4834.4081,123.86,85.9293,31.0347,207.8479,9.4978Z"/></g><g id="Read" class="cls-3"><g class="cls-3"><path class="cls-2" d="M143.7843,119.8333l-8.9678-50.7656,22.5088-3.9756q6.7866-1.2,10.56-.4561a11.4669,11.4669,0,0,1,6.4981,3.834,14.644,14.644,0,0,1,3.4643,7.28,12.9679,12.9679,0,0,1-1.8886,9.7256q-2.8434,4.3227-9.9717,6.6172a17.6986,17.6986,0,0,1,4.4975,1.8125,35.5012,35.5012,0,0,1,6.7681,5.7666l11.271,12.2578-8.4492,1.4931-8.584-9.375q-3.7515-4.0517-6.0835-6.1386a15.4553,15.4553,0,0,0-4.01-2.7911,10.2722,10.2722,0,0,0-3.3037-.8095,20.5026,20.5026,0,0,0-3.7827.4189l-7.7915,1.376,3.9824,22.543Zm1.708-29.5469,14.44-2.5508a21.9613,21.9613,0,0,0,7.0347-2.2256,7.7859,7.7859,0,0,0,3.41-3.7441,8.3747,8.3747,0,0,0,.5454-4.792,7.6834,7.6834,0,0,0-3.66-5.46q-3.0257-1.8574-8.6694-.8614L142.525,73.4905Z"/><path class="cls-2" d="M217.1832,94.6556l6.5815-.3418a15.9626,15.9626,0,0,1-4.0966,9.7587,17.2321,17.2321,0,0,1-9.9766,4.9756q-8.07,1.4253-13.6729-2.7089-5.606-4.1354-7.19-13.1026-1.6392-9.28,2.2349-15.25a16.421,16.421,0,0,1,11.4912-7.3144,15.962,15.962,0,0,1,12.9384,2.8925q5.5614,4.1953,7.17,13.3018.0981.5537.26,1.6689L195.4967,93.38q1.4157,5.9985,5.0669,8.6738a10.36,10.36,0,0,0,8.2568,1.8633,9.69,9.69,0,0,0,5.5347-2.835A12.1374,12.1374,0,0,0,217.1832,94.6556Zm-22.2456-6.462,20.5351-3.6279Q214.2372,80,211.8878,78.0208a9.7009,9.7009,0,0,0-8.3579-2.2363,10.0527,10.0527,0,0,0-6.7124,4.1494A11.5511,11.5511,0,0,0,194.9376,88.1936Z"/><path class="cls-2" d="M256.7389,95.2024a23.5376,23.5376,0,0,1-5.9327,5.333,19.5354,19.5354,0,0,1-6.66,2.4258q-6.06,1.0708-9.8379-1.3154a9.9219,9.9219,0,0,1-4.5918-6.9912,10.2089,10.2089,0,0,1,.3579-5.1514,10.3312,10.3312,0,0,1,2.5874-4.1533,15.3785,15.3785,0,0,1,4.1235-2.835,45.6967,45.6967,0,0,1,5.3755-1.914,57.8152,57.8152,0,0,0,10.7363-4.11q-.1919-1.2861-.2529-1.6338-.6723-3.8085-2.7143-5.0556-2.7619-1.689-7.4722-.8575-4.3981.7779-6.2207,2.6875-1.823,1.9118-2.1353,6.001l-6.2417.2461a15.3242,15.3242,0,0,1,1.6192-6.8027,12.1663,12.1663,0,0,1,4.8515-4.6778,24.9471,24.9471,0,0,1,8.1162-2.7734,22.4661,22.4661,0,0,1,7.8487-.2441,10.2421,10.2421,0,0,1,4.8213,2.0234,9.9739,9.9739,0,0,1,2.6884,3.8984,35.6793,35.6793,0,0,1,1.3272,5.6944l1.4683,8.3115a89.4813,89.4813,0,0,0,2.34,10.9238,14.0455,14.0455,0,0,0,2.3555,4.1367l-6.51,1.15A13.4059,13.4059,0,0,1,256.7389,95.2024ZM253.76,81.3733a46.4531,46.4531,0,0,1-9.7646,4.1543,23.8508,23.8508,0,0,0-5.2163,2.2061,5.5024,5.5024,0,0,0-2.1011,2.4609,5.5949,5.5949,0,0,0,2.2788,6.9356,8.2542,8.2542,0,0,0,5.8169.6865,13.0515,13.0515,0,0,0,6.128-2.708A9.8525,9.8525,0,0,0,254.26,90.07a15.2843,15.2843,0,0,0-.0966-6.41Z"/><path class="cls-2" d="M296.8443,92.7952l-.82-4.64a11.6171,11.6171,0,0,1-9.3184,7.288,14.6477,14.6477,0,0,1-8.5141-.9951,16.1858,16.1858,0,0,1-6.91-5.7607,23.762,23.762,0,0,1-3.7905-9.6338,26.5393,26.5393,0,0,1,.07-10.3135,14.6909,14.6909,0,0,1,4.292-7.8467,14.9422,14.9422,0,0,1,7.7847-3.8388,12.443,12.443,0,0,1,6.1694.3564,12.5765,12.5765,0,0,1,4.8706,2.9072L287.461,42.1038l6.1983-1.0957,8.9677,50.7656ZM273.898,77.9231q1.2481,7.065,4.8438,10.0362a9.1165,9.1165,0,0,0,7.6479,2.2549,8.9488,8.9488,0,0,0,6.3526-4.5684q2.2668-3.8437,1.0551-10.7022-1.3336-7.5483-4.8662-10.5673a9.0888,9.0888,0,0,0-7.792-2.2657,8.7726,8.7726,0,0,0-6.3437,4.6192Q272.607,70.6175,273.898,77.9231Z"/></g></g></g></svg>