<svg id="Layer_1" data-name="Layer 1" 
    xmlns="http://www.w3.org/2000/svg" viewBox="0 0 442.3163 169.737">
    <defs>
        <style>.cls-1{fill:#fff;stroke:#ff9aec;stroke-miterlimit:4.001;stroke-width:3px;}.cls-2{isolation:isolate;}.cls-3{fill:#ff9aec;}</style>
    </defs>
    <title>read</title>
    <path class="cls-1" d="M234.2105,158.7521c-14.9436,2.64-29.9681,4.7638-44.6563,6.3133-14.3121,1.51-28.4776,2.4924-42.1031,2.9209-13.3728.4205-26.36.3117-38.6007-.3235a337.9445,337.9445,0,0,1-34.1439-3.4157,213.9352,213.9352,0,0,1-28.7232-6.346A115.7174,115.7174,0,0,1,23.66,148.8172,54.5,54.5,0,0,1,8.7062,137.2726,26.9005,26.9005,0,0,1,3.6084,108.414,54.4969,54.4969,0,0,1,13.7018,92.4449a115.7156,115.7156,0,0,1,17.86-16.1823A213.9251,213.9251,0,0,1,56.3725,60.46,337.9441,337.9441,0,0,1,87.28,45.5528c11.2824-4.79,23.4462-9.3422,36.1537-13.5287,12.9477-4.2657,26.5926-8.1957,40.5557-11.6808,14.33-3.5766,29.173-6.7286,44.1166-9.3684,18.0278-3.1846,36.0817-5.605,53.66-7.1939,17.0831-1.5442,33.7969-2.3113,49.6771-2.28a399.871,399.871,0,0,1,44.0492,2.38,247.3052,247.3052,0,0,1,36.7628,6.7716c14.11,3.8438,25.4174,8.8205,33.6087,14.7917,8.314,6.0608,13.2161,13.02,14.57,20.6848a28.36,28.36,0,0,1-1.7258,15.1845,54.4987,54.4987,0,0,1-10.0935,15.9691,115.7164,115.7164,0,0,1-17.86,16.1823,213.9384,213.9384,0,0,1-24.8106,15.8027,337.9055,337.9055,0,0,1-30.9072,14.907c-11.2823,4.79-23.4462,9.3423-36.1537,13.5288-12.9477,4.2657-26.5926,8.1956-40.5557,11.6807C263.9971,152.96,249.1541,156.1123,234.2105,158.7521Z"/>
    <g id="Read" class="cls-2">
        <g class="cls-2">
            <path class="cls-3" d="M139.6338,120.5156l-.376-2.1279,4.2553-.752c4.2554-.7509,5.9908-2.5195,5.49-5.3564l-7.5176-42.5547c-.501-2.8369-2.7378-3.9043-6.9931-3.1533l-4.2554.7519-.3755-2.1269,23.1211-4.084c13.4756-2.3809,22.8965-.3887,24.7754,10.25,1.73,9.7881-5.5625,14.8779-15.6875,17.18l15.6186,17.206c2.9087,3.2168,4.9742,4.9727,8.3784,4.3711l1.4185-.2509.376,2.1279-9.5039,1.6787L156.9052,89.5264l-7.0219,1.24,3.6587,20.7109c.5009,2.837,2.7378,3.9034,6.9931,3.1514l5.6738-1.0019.376,2.1279Zm13.0151-57.1513-1.1348.2c-4.2553.7519-5.9907,2.5214-5.49,5.3584L149.5073,88.64l7.3765-1.3027c9.22-1.6289,16.6709-4.9931,14.9169-14.9219C170.1591,63.124,162.5781,61.61,152.6489,63.3643Z"/>
            <path class="cls-3" d="M215.2739,86.6758,191.5146,90.873c.0547.7217.18,1.4317.3052,2.1416,1.4907,8.4395,6.3188,14.24,13.979,12.8877,9.5039-1.6787,10.186-11.8916,10.1777-12.7685l1.5435.459c-.0166.7353-.8823,14.0508-12.6558,16.1308-9.6455,1.7041-16.8388-5.0693-18.5928-14.999-2.1552-12.1982,4.1348-20.4775,12.22-21.9062,10.0713-1.7784,15.563,5.2959,17.0166,13.5234ZM191.3515,88.707,209.5078,85.5c-.5762-3.2617-2.13-12.0566-9.7891-10.7041C194.3281,75.748,191.1587,80.9893,191.3515,88.707Z"/>
            <path class="cls-3" d="M250.5615,94.3389l-.5518-3.1221-.2837.05c-1.8095,5.0742-4.7915,11.3789-13.16,12.8564-7.0923,1.253-12.2661-1.123-13.3311-7.1523-1.5664-8.8652,5.2632-11.6064,14.0113-14.249,6.3164-1.9209,10.6215-3.6319,9.92-7.6045-.99-5.6026-5.4541-8.1045-11.8374-6.9776-6.7378,1.1905-6.8076,3.6905-6.6992,6.376.0966,2.6172.36,5.35-3.0445,5.9512a2.778,2.778,0,0,1-3.48-2.3115c-.7021-3.9717,4.7539-10.3477,13.2647-11.8516,7.0918-1.2529,14.56-.3779,16.0513,8.0615l3.27,18.5118c.3759,2.1269,1.4609,4.13,3.5888,3.7539,3.1211-.5508,3.2911-4.9688,3.3785-5.7168l1.5439.46c-.7378,4.5176-2.1685,8.4268-5.7148,9.0537S251.313,98.5928,250.5615,94.3389Zm-2.5684-14.54a51.8356,51.8356,0,0,1-9.7827,4.6533c-6.17,2.3331-10.4922,4.7793-9.4272,10.8086.94,5.3184,4.5156,6.5147,9.0547,5.7129,10.2836-1.8164,11.4707-13.7285,10.8442-17.2744Z"/>
            <path class="cls-3" d="M286.4721,49.2324c-.7143-4.0429-1.4575-6.1787-3.6557-5.79a11.5092,11.5092,0,0,0-3.6045,1.9531l-1.085-2.0029,10.187-6.92.334.2343L297.2426,85.36c.501,2.8369,1.9527,3.6035,3.9385,3.2529a24.84,24.84,0,0,0,3.73-1.2442l.376,2.128-11.2554,4.1836-.334-.2344.0279-8.1231-.2837.05c-1.2886,5.129-4.4668,9.4922-10.708,10.5948-7.9434,1.4033-16.5718-4.3848-18.5767-15.7324s4.1182-19.7442,12.3457-21.1973a13.1739,13.1739,0,0,1,12.1289,4.0732l.2837-.05Zm-8.4048,12.4541c-6.7373,1.1905-9.8652,8.3262-8.2363,17.5469,1.6289,9.2187,7.0117,14.85,13.749,13.6592,6.0289-1.0645,8.7144-7.39,8.6807-10.8946L290.456,71.7852C289.1284,64.2676,284.0962,60.6221,278.0673,61.6865Z"/>
        </g>
    </g>
</svg>