<svg xmlns="http://www.w3.org/2000/svg" width="467.993" height="228.537" viewBox="0 0 467.993 228.537">
  <defs>
    <style>
      .cls-1 {
        fill: #fff;
      }

      .cls-2, .cls-4 {
        fill: #ff9aec;
      }

      .cls-2 {
        font-size: 72px;
        font-family: SelfModernTrial-Regular, Self Modern Trial;
      }

      .cls-3, .cls-4 {
        stroke: none;
      }
    </style>
  </defs>
  <g id="Group_612" data-name="Group 612" transform="translate(-492 -73)">
    <g id="Path_50" data-name="Path 50" class="cls-1" transform="matrix(0.985, -0.174, 0.174, 0.985, 492, 150.834)">
      <path class="cls-3" d="M 224.1147918701172 151.5275421142578 C 208.9436187744141 151.5275421142578 193.7824554443359 151.0057678222656 179.0523986816406 149.9767150878906 C 164.6995086669922 148.9739837646484 150.5825653076172 147.4779357910156 137.0935668945312 145.5300903320312 C 123.8549041748047 143.6184234619141 111.0879058837891 141.2526550292969 99.14723968505859 138.49853515625 C 87.32962799072266 135.7728729248047 76.21979522705078 132.6435394287109 66.12635040283203 129.1976013183594 C 56.05023574829102 125.7575988769531 46.90740203857422 121.9748764038086 38.95184707641602 117.9545974731445 C 30.95173645019531 113.9117660522461 24.08895874023438 109.5966491699219 18.55418014526367 105.129150390625 C 12.97112560272217 100.6226501464844 8.693403244018555 95.9237060546875 5.839847564697266 91.16281890869141 C 2.960125207901001 86.35832214355469 1.500014066696167 81.42971038818359 1.500014066696167 76.51376342773438 C 1.500014066696167 71.59781646728516 2.960125207901001 66.66920471191406 5.839847564697266 61.86470794677734 C 8.693403244018555 57.10382080078125 12.97112560272217 52.40487289428711 18.55418014526367 47.89837265014648 C 24.08895874023438 43.43087387084961 30.95173645019531 39.11576461791992 38.95184707641602 35.07292938232422 C 46.90740203857422 31.05265235900879 56.05023574829102 27.26992988586426 66.12635040283203 23.82992935180664 C 76.21979522705078 20.38398551940918 87.32962799072266 17.25465202331543 99.14723968505859 14.52898597717285 C 111.0879058837891 11.77487468719482 123.8549041748047 9.409096717834473 137.0935668945312 7.497430324554443 C 150.5825653076172 5.549596786499023 164.6995086669922 4.05354118347168 179.0523986816406 3.050818920135498 C 193.7824554443359 2.021763324737549 208.9436187744141 1.499985694885254 224.1147918701172 1.499985694885254 C 242.4170684814453 1.499985694885254 260.6121826171875 2.256874561309814 278.1946105957031 3.749707937240601 C 295.2816162109375 5.200429916381836 311.8698425292969 7.351930141448975 327.4985656738281 10.14443016052246 C 342.852783203125 12.88792991638184 357.3042907714844 16.25354194641113 370.4515075683594 20.14776420593262 C 383.5263366699219 24.02054214477539 395.3072814941406 28.41459655761719 405.4670104980469 33.20798492431641 C 418.6896667480469 39.44609832763672 428.9566345214844 46.31220626831055 435.9825744628906 53.61553955078125 C 443.1137390136719 61.02826309204102 446.7295837402344 68.73232269287109 446.7295837402344 76.51376342773438 C 446.7295837402344 81.42971038818359 445.2694702148438 86.35832214355469 442.3897399902344 91.16281890869141 C 439.5361938476562 95.9237060546875 435.2584533691406 100.6226501464844 429.6753540039062 105.129150390625 C 424.140625 109.5966491699219 417.2778625488281 113.9117660522461 409.2777404785156 117.9545974731445 C 401.3221740722656 121.9748764038086 392.1793518066406 125.7575988769531 382.1031799316406 129.1976013183594 C 372.0097961425781 132.6435394287109 360.8999633789062 135.7728729248047 349.0823364257812 138.49853515625 C 337.1416931152344 141.2526550292969 324.3746337890625 143.6184234619141 311.1359558105469 145.5300903320312 C 297.6470031738281 147.4779357910156 283.5300598144531 148.9739837646484 269.1771850585938 149.9767150878906 C 254.4471282958984 151.0057678222656 239.2859649658203 151.5275421142578 224.1147918701172 151.5275421142578 Z"/>
      <path class="cls-4" d="M 224.1147918701172 3 C 208.9783172607422 3 193.8523254394531 3.520523071289062 179.1569213867188 4.54718017578125 C 164.8406066894531 5.547348022460938 150.7606201171875 7.039474487304688 137.3079833984375 8.9820556640625 C 124.1103210449219 10.88775634765625 111.3846130371094 13.24581909179688 99.48431396484375 15.99058532714844 C 87.71636962890625 18.70481872558594 76.65615844726562 21.81999206542969 66.6109619140625 25.24946594238281 C 56.60037231445312 28.6671142578125 47.5220947265625 32.42264556884766 39.62832641601562 36.41170501708984 C 31.72238159179688 40.40693664550781 24.948974609375 44.66429138183594 19.49630737304688 49.06558990478516 C 14.05084228515625 53.4609375 9.8890380859375 58.02664947509766 7.126373291015625 62.63587951660156 C 4.388275146484375 67.20411682128906 2.999969482421875 71.873291015625 2.999969482421875 76.51376342773438 C 2.999969482421875 81.15423583984375 4.388275146484375 85.82341003417969 7.126373291015625 90.39164733886719 C 9.8890380859375 95.00088500976562 14.05084228515625 99.56658935546875 19.49630737304688 103.9619445800781 C 24.948974609375 108.3632354736328 31.72238159179688 112.6205902099609 39.62832641601562 116.6158218383789 C 47.5220947265625 120.6048812866211 56.60037231445312 124.3604125976562 66.6109619140625 127.7780609130859 C 76.65615844726562 131.2075347900391 87.71636962890625 134.3227081298828 99.48431396484375 137.0369415283203 C 111.3846130371094 139.7817077636719 124.1103210449219 142.1397705078125 137.3079833984375 144.0454711914062 C 150.7606201171875 145.9880523681641 164.8406066894531 147.4801788330078 179.1569213867188 148.4803466796875 C 193.8523254394531 149.5070037841797 208.9783172607422 150.0275268554688 224.1147918701172 150.0275268554688 C 239.2512664794922 150.0275268554688 254.3772583007812 149.5070037841797 269.0726928710938 148.4803466796875 C 283.388916015625 147.4801788330078 297.4689636230469 145.9880523681641 310.921630859375 144.0454711914062 C 324.1192016601562 142.1397705078125 336.8449096679688 139.7817077636719 348.7452087402344 137.0369415283203 C 360.5132141113281 134.3227081298828 371.5733642578125 131.2075347900391 381.6185607910156 127.7780609130859 C 391.629150390625 124.3604125976562 400.7074279785156 120.6048812866211 408.6011962890625 116.6158218383789 C 416.5071411132812 112.6205902099609 423.2805480957031 108.3632354736328 428.7332153320312 103.9619445800781 C 434.1786804199219 99.56658935546875 438.3404846191406 95.00088500976562 441.1031494140625 90.39164733886719 C 443.8412475585938 85.82341003417969 445.2295532226562 81.15423583984375 445.2295532226562 76.51376342773438 C 445.2295532226562 69.13335418701172 441.7547302246094 61.7791748046875 434.9015502929688 54.65547180175781 C 428.0025634765625 47.48411560058594 417.884033203125 40.72458648681641 404.8269653320312 34.56452941894531 C 394.7361450195312 29.80370330810547 383.0272216796875 25.43711853027344 370.0255126953125 21.58599853515625 C 356.9313354492188 17.70747375488281 342.534423828125 14.35482788085938 327.2347412109375 11.62106323242188 C 311.6511840820312 8.836639404296875 295.1090087890625 6.691177368164062 278.0677490234375 5.244354248046875 C 260.52734375 3.755111694335938 242.3749084472656 3 224.1147918701172 3 M 224.1147918701172 0 C 298.87451171875 0 365.0846252441406 12.49711608886719 406.1070251464844 31.85134887695312 C 432.494384765625 44.30029296875 448.2295532226562 59.77964782714844 448.2295532226562 76.51376342773438 C 448.2295532226562 118.7711791992188 347.889892578125 153.0275268554688 224.1147918701172 153.0275268554688 C 100.3396301269531 153.0275268554688 -3.0517578125e-05 118.7711791992188 -3.0517578125e-05 76.51376342773438 C -3.0517578125e-05 34.25635528564453 100.3396301269531 0 224.1147918701172 0 Z"/>
    </g>
    <text id="Read" class="cls-2" transform="matrix(0.985, -0.174, 0.174, 0.985, 594, 159.718)"><tspan x="37.32" y="71">Read</tspan></text>
  </g>
</svg>
